<svg width="13.88384978933342in" height="21.493086557116268in" viewBox="0 0 13.88384978933342 21.493086557116268" xmlns="http://www.w3.org/2000/svg" xmlnsXlink="http://www.w3.org/1999/xlink">
        <g transform="translate(0 21.493086557116268)">
          <g transform="scale(1, -1)"><g fill="rgb(0,0,0)" stroke="none"><g transform="matrix(1,0,0,1,3.9239953209680727,15.748142952467036)"><path class="fill" d="M 0 0.07874015748031496 C 0.043486988173228346 0.07874015748031496 0.07874015748031496 0.043486988173228346 0.07874015748031496 0 C 0.07874015748031496 -0.043486988173228346 0.043486988173228346 -0.07874015748031496 0 -0.07874015748031496 C -0.043486988173228346 -0.07874015748031496 -0.07874015748031496 -0.043486988173228346 -0.07874015748031496 0 C -0.07874015748031496 0.043486988173228346 -0.043486988173228346 0.07874015748031496 0 0.07874015748031496"></path></g></g><g fill="rgb(0,0,0)" stroke="none"><g transform="matrix(1,0,0,1,10.883849789333427,15.845845484735325)"><path class="fill" d="M 0 0.07874015748031496 C 0.043486988173228346 0.07874015748031496 0.07874015748031496 0.043486988173228346 0.07874015748031496 0 C 0.07874015748031496 -0.043486988173228346 0.043486988173228346 -0.07874015748031496 0 -0.07874015748031496 C -0.043486988173228346 -0.07874015748031496 -0.07874015748031496 -0.043486988173228346 -0.07874015748031496 0 C -0.07874015748031496 0.043486988173228346 -0.043486988173228346 0.07874015748031496 0 0.07874015748031496"></path></g></g><g fill="rgb(0,0,0)" stroke="none"><g transform="matrix(1,0,0,1,7.316256405791131,9.812714117168774)"><path class="fill" d="M 0 0.07874015748031496 C 0.043486988173228346 0.07874015748031496 0.07874015748031496 0.043486988173228346 0.07874015748031496 0 C 0.07874015748031496 -0.043486988173228346 0.043486988173228346 -0.07874015748031496 0 -0.07874015748031496 C -0.043486988173228346 -0.07874015748031496 -0.07874015748031496 -0.043486988173228346 -0.07874015748031496 0 C -0.07874015748031496 0.043486988173228346 -0.043486988173228346 0.07874015748031496 0 0.07874015748031496"></path></g></g><g fill="rgb(0,0,0)" stroke="none"><g transform="matrix(1,0,0,1,13.836449478949193,18.801347085850935)"><path class="fill" d="M 0 0.07874015748031496 C 0.043486988173228346 0.07874015748031496 0.07874015748031496 0.043486988173228346 0.07874015748031496 0 C 0.07874015748031496 -0.043486988173228346 0.043486988173228346 -0.07874015748031496 0 -0.07874015748031496 C -0.043486988173228346 -0.07874015748031496 -0.07874015748031496 -0.043486988173228346 -0.07874015748031496 0 C -0.07874015748031496 0.043486988173228346 -0.043486988173228346 0.07874015748031496 0 0.07874015748031496"></path></g></g><g fill="rgb(0,0,0)" stroke="none"><g transform="matrix(1,0,0,1,13.88384978933342,8.518155564614005)"><path class="fill" d="M 0 0.07874015748031496 C 0.043486988173228346 0.07874015748031496 0.07874015748031496 0.043486988173228346 0.07874015748031496 0 C 0.07874015748031496 -0.043486988173228346 0.043486988173228346 -0.07874015748031496 0 -0.07874015748031496 C -0.043486988173228346 -0.07874015748031496 -0.07874015748031496 -0.043486988173228346 -0.07874015748031496 0 C -0.07874015748031496 0.043486988173228346 -0.043486988173228346 0.07874015748031496 0 0.07874015748031496"></path></g></g><g fill="rgb(0,0,0)" stroke="none"><g transform="matrix(1,0,0,1,5.4160275831010205,6.026740991772754)"><path class="fill" d="M 0 0.07874015748031496 C 0.043486988173228346 0.07874015748031496 0.07874015748031496 0.043486988173228346 0.07874015748031496 0 C 0.07874015748031496 -0.043486988173228346 0.043486988173228346 -0.07874015748031496 0 -0.07874015748031496 C -0.043486988173228346 -0.07874015748031496 -0.07874015748031496 -0.043486988173228346 -0.07874015748031496 0 C -0.07874015748031496 0.043486988173228346 -0.043486988173228346 0.07874015748031496 0 0.07874015748031496"></path></g></g><g fill="rgb(0,0,0)" stroke="none"><g transform="matrix(1,0,0,1,0.7399572877493518,8.542581197681073)"><path class="fill" d="M 0 0.07874015748031496 C 0.043486988173228346 0.07874015748031496 0.07874015748031496 0.043486988173228346 0.07874015748031496 0 C 0.07874015748031496 -0.043486988173228346 0.043486988173228346 -0.07874015748031496 0 -0.07874015748031496 C -0.043486988173228346 -0.07874015748031496 -0.07874015748031496 -0.043486988173228346 -0.07874015748031496 0 C -0.07874015748031496 0.043486988173228346 -0.043486988173228346 0.07874015748031496 0 0.07874015748031496"></path></g></g><g fill="rgb(0,0,0)" stroke="none"><g transform="matrix(1,0,0,1,0.7689062898362927,18.769302568335878)"><path class="fill" d="M 0 0.07874015748031496 C 0.043486988173228346 0.07874015748031496 0.07874015748031496 0.043486988173228346 0.07874015748031496 0 C 0.07874015748031496 -0.043486988173228346 0.043486988173228346 -0.07874015748031496 0 -0.07874015748031496 C -0.043486988173228346 -0.07874015748031496 -0.07874015748031496 -0.043486988173228346 -0.07874015748031496 0 C -0.07874015748031496 0.043486988173228346 -0.043486988173228346 0.07874015748031496 0 0.07874015748031496"></path></g></g><g fill="rgb(0,0,0)" stroke="none"><g transform="matrix(1,0,0,1,9.235278870846104,21.493086557116268)"><path class="fill" d="M 0 0.07874015748031496 C 0.043486988173228346 0.07874015748031496 0.07874015748031496 0.043486988173228346 0.07874015748031496 0 C 0.07874015748031496 -0.043486988173228346 0.043486988173228346 -0.07874015748031496 0 -0.07874015748031496 C -0.043486988173228346 -0.07874015748031496 -0.07874015748031496 -0.043486988173228346 -0.07874015748031496 0 C -0.07874015748031496 0.043486988173228346 -0.043486988173228346 0.07874015748031496 0 0.07874015748031496"></path></g></g></g>
        </g>
      </svg>