<?xml version="1.0" encoding="UTF-8" standalone="no"?>
<svg
   width="17.540310824431092in"
   height="23.625761900772112in"
   viewBox="0 0 17.540310824431092 23.625761900772112"
   xmlnsXlink="http://www.w3.org/1999/xlink"
   version="1.1"
   id="svg20"
   sodipodi:docname="design.svg"
   xml:space="preserve"
   inkscape:version="1.3.2 (091e20e, 2023-11-25, custom)"
   xmlns:inkscape="http://www.inkscape.org/namespaces/inkscape"
   xmlns:sodipodi="http://sodipodi.sourceforge.net/DTD/sodipodi-0.dtd"
   xmlns="http://www.w3.org/2000/svg"
   xmlns:svg="http://www.w3.org/2000/svg"><defs
     id="defs20" /><sodipodi:namedview
     id="namedview20"
     pagecolor="#ffffff"
     bordercolor="#000000"
     borderopacity="0.25"
     inkscape:showpageshadow="2"
     inkscape:pageopacity="0.0"
     inkscape:pagecheckerboard="0"
     inkscape:deskcolor="#d1d1d1"
     inkscape:document-units="in"
     showguides="false"
     inkscape:zoom="0.72396257"
     inkscape:cx="605.00365"
     inkscape:cy="1104.3389"
     inkscape:window-width="1920"
     inkscape:window-height="1017"
     inkscape:window-x="-8"
     inkscape:window-y="-8"
     inkscape:window-maximized="1"
     inkscape:current-layer="svg20" /><g
     id="g20"><g
       fill="none"
       stroke="#000000"
       id="g2"
       transform="matrix(1,0,0,-1,0,23.625762)"><g
         transform="matrix(0.5,-0.8660254,-0.8660254,-0.5,7.3019434,13.719615)"
         id="g1"><path
           class="outline"
           d="m -0.55345694,-7.6787926 c 0,0 -5.81269476,3.3596641 -5.81269476,3.3596641 -0.342489,0.1979543 -0.55343,0.5635165 -0.55343,0.9590979 0,0 0,6.7200611 0,6.7200611 0,0.3955813 0.2109411,0.7611435 0.55343,0.9590978 0,0 5.81269476,3.3596643 5.81269476,3.3596643 0.34241322,0.1979106 0.76444724,0.1979113 1.10686115,1.9e-6 0,0 5.81274649,-3.3596681 5.81274649,-3.3596681 0.3424894,-0.1979531 0.553431,-0.5635148 0.553431,-0.9590959 0,0 0,-6.7200611 0,-6.7200611 0,-0.3955811 -0.2109416,-0.7611429 -0.553431,-0.959096 0,0 -5.81274649,-3.3596679 -5.81274649,-3.3596679 -0.34241392,-0.1979094 -0.76444793,-0.1979087 -1.10686115,1.9e-6 0,0 0,0 0,0 m 0.98453157,1.6331906 c 0,0 2.39230907,2.8075911 2.39230907,2.8075911 0.1473508,0.1729295 0.052243,0.4405224 -0.1711935,0.4816672 -0.017631,0.00325 -0.035521,0.00488 -0.053449,0.00488 0,0 -5.3746627,0 -5.3746627,0 -0.2179067,0 -0.3540983,-0.2358909 -0.245145,-0.4246035 0.010079,-0.017458 0.021995,-0.033789 0.035543,-0.048716 0,0 2.57239668,-2.8340468 2.57239668,-2.8340468 0.22783698,-0.2510115 0.62434006,-0.2447987 0.84420095,0.013228 0,0 0,0 0,0 M 1.5308382,-6.085177 c 0,0 3.4071087,1.9770267 3.4071087,1.9770267 0.2400506,0.1392931 0.239293,0.4862136 -0.00136,0.6244569 -0.0021,0.0012 -0.0042,0.00239 -0.00633,0.00355 0,0 -0.4429382,0.2427252 -0.4429382,0.2427252 -0.3263145,0.1788166 -0.7333846,0.1034921 -0.9741071,-0.1802494 0,0 -2.1217234,-2.5008916 -2.1217234,-2.5008916 -0.054884,-0.064692 -0.019154,-0.1645383 0.064313,-0.1797227 0.025775,-0.00469 0.052377,-4.27e-5 0.075036,0.013106 0,0 0,0 0,0 m -3.0203949,0.1553172 c 0,0 -2.3064732,2.5976492 -2.3064732,2.5976492 -0.2414272,0.2719057 -0.6489546,0.3181873 -0.9452061,0.107344 0,0 -0.3105306,-0.2210058 -0.3105306,-0.2210058 -0.2434163,-0.1732403 -0.2256396,-0.5403337 0.033377,-0.6892434 0,0 3.3990782,-1.9541436 3.3990782,-1.9541436 0.069488,-0.039949 0.156164,0.010306 0.1560169,0.090459 -4.66e-5,0.025415 -0.00939,0.049936 -0.026262,0.068941 0,0 0,0 0,0 m 7.4644239,3.5380307 c 0,0 0.093572,3.7640531 0.093572,3.7640531 0.00209,0.084164 -0.087711,0.1390306 -0.1616445,0.09876 -0.022915,-0.012481 -0.040613,-0.032745 -0.049897,-0.057132 0,0 -1.1312085,-2.971408 -1.1312085,-2.971408 -0.1315908,-0.3456571 0.00359,-0.7359213 0.320789,-0.9261273 0,0 0.3642864,-0.2184401 0.3642864,-0.2184401 0.244815,-0.1468007 0.5570082,0.024926 0.5641022,0.3102936 0,0 0,0 0,0 m -11.49309,-0.2927084 c 0,0 0.4382263,0.2771496 0.4382263,0.2771496 0.315872,0.1997684 0.4511462,0.5917533 0.3257117,0.9438168 0,0 -1.0459183,2.9356336 -1.0459183,2.9356336 -0.029271,0.082156 -0.1365024,0.1018167 -0.1930161,0.035389 -0.017215,-0.020235 -0.026771,-0.045876 -0.026999,-0.072442 0,0 -0.03277,-3.8220194 -0.03277,-3.8220194 -0.0023,-0.2682666 0.2866694,-0.4384231 0.5201452,-0.3062818 0.00494,0.0028 0.00982,0.00572 0.014621,0.00875 0,0 0,0 0,0 m 1.8956791,1.6357391 c 0,0 2.63940207,4.5702793 2.63940207,4.5702793 0.1161069,0.2010459 -0.0289649,0.452389 -0.26112917,0.4524176 -0.016649,2e-6 -0.033269,-0.00137 -0.049691,-0.00412 0,0 -3.7153675,-0.6201604 -3.7153675,-0.6201604 -0.3292946,-0.054965 -0.5295534,-0.3934464 -0.4191931,-0.7085284 0,0 1.2749931,-3.64014922 1.2749931,-3.64014922 0.074663,-0.21316458 0.3520842,-0.26556768 0.4993588,-0.0943256 0.011907,0.013844 0.022495,0.02877 0.031627,0.044582 0,0 0,0 0,0 m 7.7091569,0.03545 c 0,0 1.3883094,3.6528931 1.3883094,3.6528931 0.1171466,0.3082341 -0.078522,0.6462652 -0.4041509,0.6981999 0,0 -3.7025905,0.5905247 -3.7025905,0.5905247 C 1.1313516,3.966042 0.94244481,3.733275 1.0281478,3.5092897 c 0.00521,-0.013605 0.011359,-0.026827 0.018415,-0.039571 0,0 2.5033298,-4.5213607 2.5033298,-4.5213607 0.110592,-0.1997446 0.3959418,-0.2048656 0.5136297,-0.00922 0.00909,0.015119 0.016822,0.03102 0.02309,0.047512 0,0 0,0 0,0 m -8.3493202,5.2021469 c 0,0 3.144782,0.6172711 3.144782,0.6172711 0.36675845,0.071989 0.63469356,0.3884811 0.64516906,0.7620911 0,0 0.011893,0.4241665 0.011893,0.4241665 0.00771,0.2749699 -0.28513538,0.4551721 -0.52712118,0.324364 -0.002904,-0.00157 -0.005787,-0.00318 -0.008646,-0.00483 0,0 -3.33964668,-1.9267458 -3.33964668,-1.9267458 -0.070855,-0.040879 -0.070887,-0.1431307 -5.73e-5,-0.1840535 0.022252,-0.012857 0.048409,-0.017213 0.073627,-0.012264 0,0 0,0 0,0 m 8.726557,0.1316344 c 0,0 -3.55986717,1.9625238 -3.55986717,1.9625238 -0.24253605,0.1337081 -0.53886436,-0.045277 -0.53339096,-0.3221737 5.197e-5,-0.00263 1.3276e-4,-0.00526 2.4236e-4,-0.00788 0,0 0.0160623,-0.3850385 0.0160623,-0.3850385 0.0156345,-0.3747847 0.28567555,-0.690212 0.65357307,-0.7634203 0,0 3.3562413,-0.6678611 3.3562413,-0.6678611 0.074769,-0.014879 0.1376065,0.056763 0.113107,0.1289539 -0.00794,0.023393 -0.024334,0.042974 -0.045968,0.054901 0,0 0,0 0,0"
           stroke-width="0.01"
           id="path1" /></g></g><g
       fill="#dcdcdc"
       stroke="none"
       id="g18"
       transform="matrix(1,0,0,-1,0,23.625762)"><g
         id="g17"><path
           class="fill"
           d="m 5.1833569,11.812351 0.1656278,0.348587 -0.2327354,-0.0043 -0.1154472,-0.274915 -0.00508,0.272672 -0.2169426,-0.004 0.014299,-0.768024 0.2169426,0.004 -0.00582,0.312436 0.1263404,-0.310192 0.2476969,0.0046 z m 0.4812079,0.369237 -0.034774,-0.0024 -0.033188,-0.0058 -0.031503,-0.0091 -0.02972,-0.0124 -0.027839,-0.01558 -0.025859,-0.01868 -0.023781,-0.02171 -0.021604,-0.02466 -0.019329,-0.02754 -0.016955,-0.03033 -0.014483,-0.03306 -0.011913,-0.0357 -0.00924,-0.03827 -0.00648,-0.04076 -0.00361,-0.04317 -6.464e-4,-0.04551 0.00234,-0.04545 0.00522,-0.04301 0.00799,-0.04049 0.010662,-0.0379 0.013233,-0.03523 0.015704,-0.03249 0.018073,-0.02968 0.02034,-0.0268 0.022507,-0.02384 0.024572,-0.02081 0.026536,-0.01771 0.028399,-0.01453 0.030161,-0.01128 0.031821,-0.008 0.033381,-0.0046 0.034838,-0.0011 0.034627,0.0024 0.033059,0.0058 0.031392,0.0091 0.029625,0.0124 0.027758,0.01558 0.025792,0.01868 0.023726,0.02171 0.02156,0.02466 0.019295,0.02754 0.01693,0.03033 0.014465,0.03306 0.0119,0.0357 0.00924,0.03827 0.00647,0.04076 0.00361,0.04317 6.462e-4,0.04551 -0.00234,0.04545 -0.00521,0.04301 -0.00799,0.04049 -0.010654,0.0379 -0.013221,0.03523 -0.015685,0.03249 -0.018047,0.02968 -0.020306,0.0268 -0.022463,0.02384 -0.024517,0.02081 -0.026469,0.01771 -0.028319,0.01453 -0.030066,0.01128 -0.03171,0.008 -0.033252,0.0046 -0.034692,0.0011 z m 0.010745,-0.577154 -0.023433,0.0026 -0.020426,0.0085 -0.017415,0.01427 -0.014401,0.01984 -0.011383,0.02522 -0.00836,0.03042 -0.00534,0.03543 -0.00231,0.04026 8.085e-4,0.04031 0.00401,0.0356 0.00722,0.03071 0.010436,0.02563 0.013652,0.02036 0.016872,0.01491 0.020095,0.0093 0.023321,0.0034 0.023159,-0.0026 0.02022,-0.0085 0.017267,-0.01427 0.014302,-0.01984 0.011323,-0.02522 0.00833,-0.03042 0.00533,-0.03543 0.00231,-0.04026 -8.069e-4,-0.04031 -0.004,-0.0356 -0.00719,-0.03071 -0.010376,-0.02563 -0.013553,-0.02036 -0.016724,-0.0149 -0.019889,-0.0093 -0.023047,-0.0034 z m 0.5712945,0.353866 0.00304,0.01409 0.00921,0.0089 0.014593,0.0047 0.019172,0.0016 0.048607,-0.003 0.045687,-0.0094 0.040311,-0.01381 0.032481,-0.01609 0.030229,0.20741 -0.049158,0.01656 -0.052835,0.01308 -0.055865,0.0083 -0.058247,0.0023 -0.026219,-0.0016 -0.024999,-0.0037 -0.02371,-0.0058 -0.022352,-0.0079 -0.020925,-0.01 -0.019429,-0.01205 -0.017864,-0.01407 -0.01623,-0.01607 -0.014527,-0.01805 -0.012754,-0.02001 -0.010913,-0.02194 -0.009,-0.02385 -0.00702,-0.02574 -0.00498,-0.02761 -0.00286,-0.02945 -6.73e-4,-0.03127 0.00364,-0.05064 0.00899,-0.04327 0.013581,-0.03657 0.017397,-0.03052 0.020444,-0.02514 0.022722,-0.02042 0.024229,-0.01635 0.024968,-0.01295 0.049071,-0.01833 0.042787,-0.01264 0.017113,-0.0058 0.013233,-0.0064 0.00858,-0.0076 0.00316,-0.0095 -0.00204,-0.01119 -0.00746,-0.0092 -0.014213,-0.0063 -0.02231,-0.0026 -0.028716,7.06e-4 -0.026519,0.0031 -0.024649,0.0052 -0.023106,0.0071 -0.04289,0.01904 -0.040642,0.02387 -0.030208,-0.208546 0.049438,-0.02252 0.054096,-0.01732 0.029494,-0.0063 0.031497,-0.0045 0.033779,-0.0025 0.036341,-4.15e-4 0.027108,0.0015 0.025797,0.0035 0.02442,0.0055 0.022976,0.0075 0.021467,0.0096 0.019891,0.01167 0.018248,0.01379 0.01654,0.01594 0.014765,0.01811 0.012924,0.02032 0.011016,0.02256 0.00904,0.02482 0.007,0.02711 0.0049,0.02943 0.00272,0.03178 4.833e-4,0.03416 -0.0039,0.04735 -0.00928,0.04061 -0.013887,0.03448 -0.017718,0.02895 -0.020773,0.02402 -0.023053,0.01969 -0.024558,0.01596 -0.025286,0.01282 -0.049655,0.01866 -0.043262,0.01335 -0.017294,0.0062 -0.013369,0.0067 -0.00867,0.0077 -0.00319,0.0094 z m 0.7506452,0.233325 -0.095069,-0.252942 -0.103587,0.249243 -0.2177738,-0.0041 0.014299,-0.768024 0.201981,0.0038 -0.0073,0.391965 0.1167805,-0.243315 0.00499,9.3e-5 0.1084741,0.247509 0.0073,-0.391965 0.2019811,0.0038 -0.014299,0.768024 z m 0.6064993,0.02607 -0.034774,-0.0024 -0.033188,-0.0058 -0.031503,-0.0091 -0.02972,-0.0124 -0.027839,-0.01558 -0.025859,-0.01868 -0.023781,-0.02171 -0.021604,-0.02466 -0.019329,-0.02754 -0.016955,-0.03034 -0.014483,-0.03306 -0.011913,-0.0357 -0.00924,-0.03827 -0.00648,-0.04076 -0.00361,-0.04317 -6.464e-4,-0.04551 0.00234,-0.04545 0.00522,-0.04301 0.00799,-0.04049 0.010662,-0.0379 0.013233,-0.03523 0.015704,-0.03249 0.018073,-0.02968 0.02034,-0.0268 0.022507,-0.02384 0.024572,-0.02081 0.026537,-0.01771 0.028399,-0.01453 0.030161,-0.01128 0.031821,-0.008 0.033381,-0.0046 0.034838,-0.0011 0.034627,0.0024 0.03306,0.0058 0.031392,0.0091 0.029625,0.0124 0.027758,0.01558 0.025792,0.01868 0.023726,0.02171 0.02156,0.02466 0.019295,0.02754 0.01693,0.03033 0.014465,0.03306 0.0119,0.0357 0.00924,0.03827 0.00647,0.04076 0.00361,0.04317 6.462e-4,0.04551 -0.00234,0.04545 -0.00521,0.04301 -0.00799,0.04049 -0.010654,0.0379 -0.013221,0.03523 -0.015685,0.0325 -0.018047,0.02968 -0.020306,0.0268 -0.022463,0.02384 -0.024517,0.02081 -0.026469,0.01771 -0.028319,0.01453 -0.030066,0.01128 -0.03171,0.008 -0.033253,0.0046 -0.034692,0.0011 z m 0.010745,-0.577154 -0.023433,0.0026 -0.020426,0.0085 -0.017415,0.01427 -0.014401,0.01984 -0.011383,0.02522 -0.00836,0.03042 -0.00534,0.03543 -0.00231,0.04026 8.086e-4,0.04031 0.00401,0.0356 0.00722,0.03071 0.010436,0.02563 0.013652,0.02036 0.016872,0.01491 0.020095,0.0093 0.023322,0.0034 0.023159,-0.0026 0.02022,-0.0085 0.017267,-0.01427 0.014302,-0.01984 0.011323,-0.02522 0.00833,-0.03042 0.00533,-0.03543 0.00231,-0.04025 -8.069e-4,-0.04031 -0.004,-0.0356 -0.00719,-0.03071 -0.010376,-0.02563 -0.013553,-0.02036 -0.016724,-0.0149 -0.019889,-0.0093 -0.023047,-0.0034 z m 0.5712945,0.353866 0.00304,0.01408 0.00922,0.0089 0.014593,0.0047 0.019172,0.0016 0.048607,-0.003 0.045687,-0.0094 0.040311,-0.01381 0.032481,-0.01609 0.03023,0.20741 -0.049158,0.01656 -0.052835,0.01308 -0.055865,0.0083 -0.058247,0.0023 -0.026219,-0.0016 -0.024999,-0.0037 -0.02371,-0.0058 -0.022352,-0.0079 -0.020925,-0.01 -0.019429,-0.01205 -0.017864,-0.01407 -0.01623,-0.01607 -0.014527,-0.01805 -0.012754,-0.02001 -0.010913,-0.02194 -0.009,-0.02385 -0.00702,-0.02574 -0.00498,-0.02761 -0.00286,-0.02945 -6.73e-4,-0.03127 0.00364,-0.05064 0.00899,-0.04327 0.013581,-0.03657 0.017397,-0.03052 0.020444,-0.02514 0.022722,-0.02041 0.02423,-0.01635 0.024968,-0.01295 0.049071,-0.01833 0.042787,-0.01264 0.017113,-0.0058 0.013233,-0.0064 0.00858,-0.0076 0.00316,-0.0095 -0.00204,-0.01119 -0.00746,-0.0092 -0.014213,-0.0063 -0.02231,-0.0026 -0.028716,7.07e-4 -0.026519,0.0031 -0.024649,0.0052 -0.023106,0.0071 -0.04289,0.01904 -0.040642,0.02387 -0.030208,-0.208547 0.049438,-0.02252 0.054096,-0.01732 0.029494,-0.0063 0.031497,-0.0045 0.033779,-0.0025 0.036341,-4.16e-4 0.027108,0.0015 0.025797,0.0035 0.02442,0.0055 0.022977,0.0075 0.021467,0.0096 0.019891,0.01167 0.018248,0.01379 0.01654,0.01593 0.014765,0.01811 0.012923,0.02032 0.011016,0.02256 0.00904,0.02482 0.007,0.02711 0.0049,0.02943 0.00272,0.03178 4.833e-4,0.03416 -0.0039,0.04735 -0.00928,0.04061 -0.013887,0.03448 -0.017718,0.02895 -0.020773,0.02402 -0.023053,0.01969 -0.024558,0.01596 -0.025286,0.01283 -0.049655,0.01866 -0.043262,0.01335 -0.017294,0.0062 -0.013369,0.0067 -0.00867,0.0077 -0.00319,0.0094 z m 1.0335977,-0.181922 -0.054859,-0.001 -0.00783,0.420368 -0.2485281,-0.0046 -0.2141883,-0.419955 0.004,-0.214729 0.2751264,0.0051 0.00256,-0.137472 0.1953314,0.0036 -0.00256,0.137472 0.054859,10e-4 z m -0.352322,-0.01224 0.1027129,0.199668 0.00368,-0.197687 z m 0.4294463,-0.334098 0.1953314,0.0036 -0.00423,0.227226 -0.1953315,-0.0036 z m 0.5065873,0.792496 -0.03219,-0.0025 -0.029882,-0.0062 -0.027599,-0.0098 -0.025341,-0.01319 -0.023107,-0.01646 -0.020898,-0.01958 -0.018713,-0.02256 -0.016554,-0.0254 -0.014418,-0.02809 -0.012307,-0.03063 -0.010222,-0.03303 -0.00816,-0.03529 -0.00612,-0.0374 -0.00411,-0.03937 -0.00212,-0.0412 -1.603e-4,-0.04288 0.00176,-0.04284 0.00366,-0.04109 0.00557,-0.03919 0.00751,-0.03715 0.00947,-0.03496 0.011444,-0.03263 0.013439,-0.03015 0.015454,-0.02753 0.017487,-0.02476 0.01954,-0.02185 0.021612,-0.01879 0.023704,-0.01559 0.025814,-0.01224 0.027944,-0.0087 0.030093,-0.0051 0.032261,-0.0013 0.03219,0.0025 0.029882,0.0062 0.027599,0.0098 0.025341,0.01319 0.023107,0.01646 0.020898,0.01958 0.018713,0.02256 0.016554,0.0254 0.01442,0.02809 0.01231,0.03063 0.01022,0.03303 0.0082,0.03529 0.0061,0.03741 0.0041,0.03937 0.0021,0.0412 1.61e-4,0.04288 -0.0018,0.04284 -0.0037,0.04109 -0.0056,0.03919 -0.0075,0.03715 -0.0095,0.03496 -0.01144,0.03263 -0.01344,0.03015 -0.01545,0.02753 -0.017487,0.02476 -0.01954,0.02185 -0.021612,0.01879 -0.023704,0.01559 -0.025814,0.01224 -0.027944,0.0087 -0.030093,0.0051 -0.032261,0.0013 z m 0.010914,-0.586243 -0.012456,0.0032 -0.010104,0.0097 -0.008,0.0159 -0.00614,0.02166 -0.00452,0.02702 -0.00315,0.03197 -0.00318,0.07719 3.027e-4,0.07725 0.00196,0.03207 0.00351,0.02717 0.00533,0.02188 0.0074,0.01619 0.00973,0.0101 0.01233,0.0036 0.012456,-0.0032 0.010104,-0.0097 0.008,-0.0159 0.00614,-0.02166 0.00452,-0.02702 0.00315,-0.03197 0.00318,-0.07719 -3.027e-4,-0.07725 -0.00196,-0.03207 -0.00351,-0.02717 -0.00533,-0.02187 -0.0074,-0.01619 -0.00973,-0.0101 -0.01233,-0.0036 z"
           id="path16" /></g></g><circle
       style="fill:none;stroke:#000000;stroke-width:0.0104167;stroke-opacity:1"
       id="path20"
       cx="7.3075776"
       cy="2.7864435"
       r="0.11811024" /><circle
       style="fill:none;stroke:#000000;stroke-width:0.0104167;stroke-opacity:1"
       id="path20-9"
       cx="1.2309352"
       cy="6.3467321"
       r="0.11811024" /><circle
       style="fill:none;stroke:#000000;stroke-width:0.0104167;stroke-opacity:1"
       id="path20-7"
       cx="13.458598"
       cy="6.4578643"
       r="0.11811024" /><circle
       style="fill:none;stroke:#000000;stroke-width:0.0104167;stroke-opacity:1"
       id="path20-8"
       cx="13.419108"
       cy="13.427348"
       r="0.11811024" /><circle
       style="fill:none;stroke:#000000;stroke-width:0.0104167;stroke-opacity:1"
       id="path20-72"
       cx="7.3209929"
       cy="16.924637"
       r="0.11811024" /><circle
       style="fill:none;stroke:#000000;stroke-width:0.0104167;stroke-opacity:1"
       id="path20-6"
       cx="1.1475413"
       cy="13.383741"
       r="0.11811024" /><circle
       style="fill:none;stroke:#000000;stroke-width:0.0104167;stroke-opacity:1"
       id="path20-80"
       cx="7.2502651"
       cy="9.9588346"
       r="0.11811024" /></g></svg>
